<svg id="레이어_1" data-name="레이어 1" xmlns="http://www.w3.org/2000/svg" viewBox="0 0 15.37 15.37"><defs><style>.cls-1{fill:none;stroke:#999999;stroke-linejoin:round;stroke-width:1.2px;}</style></defs><title>tel</title><path class="cls-1" d="M89.76,517.16a1.05,1.05,0,0,1-.27.58l-1,1c-3.51,2.94-8-1.44-8-1.48L78.1,515s-4.43-4.51-1.5-8l1-1a1,1,0,0,1,.58-.27h.12a.53.53,0,0,1,.37.12l2.18,2.52a.67.67,0,0,1,0,.95l-.8.8a2.23,2.23,0,0,0-.42.61,2.86,2.86,0,0,0,.75,3L81.78,515a2.85,2.85,0,0,0,3,.73,2.25,2.25,0,0,0,.6-.42l.79-.79a.68.68,0,0,1,1,0l2.49,2.16A.61.61,0,0,1,89.76,517.16Z" transform="translate(-74.99 -505.02)"/></svg>